<?xml version="1.0" encoding="utf-8"?>
<?xml-stylesheet type="text/xsl" href="rss1.xsl"?>
<rss version="2.0" xmlns:atom="http://www.w3.org/2005/Atom" xmlns:content="http://purl.org/rss/1.0/modules/content/" xmlns:dc="http://purl.org/dc/elements/1.1/" xmlns:media="http://search.yahoo.com/mrss/">
<channel>
 <title>Getty</title>
 <link>http://www.gettyimg.com/</link>
 <atom:link href="http://www.gettyimg.com/" rel="self" type="application/rss+xml" />

 
                <item>
                <title><![CDATA[【HD Live Performances】WEB-RiP - Jungkook of BTS - Seven (Feat. Latto) - SBS Inkigayo 07-30-2023 YouTube 1080P Premium]]></title>
                <link><![CDATA[https://sharemania.us/threads/jungkook-of-bts-seven-feat-latto-sbs-inkigayo-07-30-2023-youtube-1080p-premium.225449/]]></link>
                <description><![CDATA[<article>
<blockquote class="messageText SelectQuoteContainer ugc baseHtml">
<img src="https://i.imgur.com/NAU892S.jpg" class="bbCodeImage LbImage" alt="[​IMG]" data-url="https://i.imgur.com/NAU892S.jpg" style=""> <br>
<b><span style="text-decoration: underline">Released On</span>:</b> 30 July 2023<br>
<b><span style="text-decoration: underline">Source</span>:</b> YouTube (1080p Premium)<br>
<div class="ToggleTriggerAnchor bbCodeSpoilerContainer">
<button type="button" class="button bbCodeSpoilerButton ToggleTrigger Tooltip JsOnly" data-target="> .SpoilerTarget"><span>Spoiler: <span class="SpoilerTitle">MediaInfo</span></span></button>
<div class="SpoilerTarget bbCodeSpoilerText">General<br>
Format : MPEG-4<br>
Format profile : Base Media<br>
Codec ID : isom (isom/iso2/mp41)<br>
File size : 124 MiB<br>
Duration : 3 min 25 s<br>
Overall bit rate : 5 058 kb/s<br>
Frame rate : 29.970 FPS<br>
Writing application : Lavf60.10.100<br>
<br>
Video<br>
ID : 1<br>
Format : vp09<br>
Codec ID : vp09<br>
Duration : 3 min 25 s<br>
Bit rate : 4 924 kb/s<br>
Width : 1 920 pixels<br>
Height : 1 080 pixels<br>
Display aspect ratio : 16:9<br>
Frame rate mode : Variable<br>
Frame rate : 29.970 FPS<br>
Minimum frame rate : 29.412 FPS<br>
Maximum frame rate : 30.303 FPS<br>
Color space : YUV<br>
Bits/(Pixel*Frame) : 0.079<br>
Stream size : 121 MiB (97%)<br>
Title : ISO Media file produced by Google Inc. Created on: 07/30/2023.<br>
Color range : Limited<br>
Color primaries : BT.709<br>
Transfer characteristics : BT.709<br>
Matrix coefficients : BT.709<br>
<br>
Audio<br>
ID : 2<br>
Format : AAC LC<br>
Format/Info : Advanced Audio Codec Low Complexity<br>
Codec ID : mp4a-40-2<br>
Duration : 3 min 25 s<br>
Bit rate mode : Constant<br>
Bit rate : 128 kb/s<br>
Channel(s) : 2 channels<br>
Channel layout : L R<br>
Sampling rate : 44.1 kHz<br>
Frame rate : 43.066 FPS (1024 SPF)<br>
Compression mode : Lossy<br>
Stream size : 3.13 MiB (3%)<br>
Title : ISO Media file produced by Google Inc.<br>
Language : English<br>
Default : Yes<br>
Alternate group : 1</div>
</div>
<div class="bbCodeBlock bbCodeVfcHH HiddenContent">
<div class="attribution type">Hidden Content:</div>
<blockquote>You must either reply or click 'Like' to see the hidden information contained here.</blockquote>
</div>
<div class="messageTextEndMarker">&nbsp;</div>
</blockquote>
</article>]]></description>
                <author><![CDATA[charlescanlom]]></author>
                </item>

                
                <item>
                <title><![CDATA[【Requests】[REQ AUD] - C3Q's ‎– No Me Importa EP (FLAC or 320kbps)]]></title>
                <link><![CDATA[https://sharemania.us/threads/c3qs-%E2%80%8E%E2%80%93-no-me-importa-ep-flac-or-320kbps.225450/]]></link>
                <description><![CDATA[<article>
<blockquote class="messageText SelectQuoteContainer ugc baseHtml">
<img src="https://i.ibb.co/dj92Ljd/No-me-Importa-capa.jpg" class="bbCodeImage LbImage" alt="[​IMG]" data-url="https://i.ibb.co/dj92Ljd/No-me-Importa-capa.jpg" style=""> <br>
<br>
The EP has two songs:<br>
1. No Me Importa<br>
2. No Me Importa (Reggaeton Mix)<br>
<br>
The main song is available on Tidal, Spotify and Apple Music in Mexico only.<br>
If anyone can rip and post it, I'd be very grateful too &lt;3
<div class="messageTextEndMarker">&nbsp;</div>
</blockquote>
</article>]]></description>
                <author><![CDATA[DizCosta]]></author>
                </item>

                </channel></rss>